<svg xmlns="http://www.w3.org/2000/svg" width="200" height="200" viewBox="0 0 200 200">
  <rect width="200" height="200" fill="#f2f2f2"/>

  <!-- einfache „Steinchen“ als Ellipsen in Grautönen -->
  <ellipse cx="36" cy="28" rx="18" ry="12" fill="#d9d9d9"/>
  <ellipse cx="92" cy="34" rx="14" ry="10" fill="#cfcfcf"/>
  <ellipse cx="152" cy="30" rx="20" ry="14" fill="#e0e0e0"/>

  <ellipse cx="28" cy="86" rx="16" ry="11" fill="#cecece"/>
  <ellipse cx="74" cy="80" rx="22" ry="15" fill="#d6d6d6"/>
  <ellipse cx="128" cy="78" rx="12" ry="9" fill="#bdbdbd"/>
  <ellipse cx="170" cy="88" rx="18" ry="12" fill="#dcdcdc"/>

  <ellipse cx="38" cy="138" rx="20" ry="14" fill="#d2d2d2"/>
  <ellipse cx="92" cy="132" rx="14" ry="10" fill="#c9c9c9"/>
  <ellipse cx="144" cy="136" rx="22" ry="15" fill="#d8d8d8"/>

  <ellipse cx="22" cy="176" rx="12" ry="9" fill="#cfcfcf"/>
  <ellipse cx="78" cy="174" rx="18" ry="12" fill="#dcdcdc"/>
  <ellipse cx="128" cy="172" rx="16" ry="11" fill="#d3d3d3"/>
  <ellipse cx="176" cy="172" rx="14" ry="10" fill="#cacaca"/>

  <!-- leichte Schatten für etwas Tiefe -->
  <g opacity="0.25">
    <ellipse cx="36" cy="30" rx="18" ry="12" fill="#000"/>
    <ellipse cx="92" cy="36" rx="14" ry="10" fill="#000"/>
    <ellipse cx="152" cy="32" rx="20" ry="14" fill="#000"/>
    <ellipse cx="28" cy="88" rx="16" ry="11" fill="#000"/>
    <ellipse cx="74" cy="82" rx="22" ry="15" fill="#000"/>
    <ellipse cx="128" cy="80" rx="12" ry="9" fill="#000"/>
    <ellipse cx="170" cy="90" rx="18" ry="12" fill="#000"/>
    <ellipse cx="38" cy="140" rx="20" ry="14" fill="#000"/>
    <ellipse cx="92" cy="134" rx="14" ry="10" fill="#000"/>
    <ellipse cx="144" cy="138" rx="22" ry="15" fill="#000"/>
    <ellipse cx="22" cy="178" rx="12" ry="9" fill="#000"/>
    <ellipse cx="78" cy="176" rx="18" ry="12" fill="#000"/>
    <ellipse cx="128" cy="174" rx="16" ry="11" fill="#000"/>
    <ellipse cx="176" cy="174" rx="14" ry="10" fill="#000"/>
  </g>
</svg>

