<svg width="420" height="280" viewBox="0 0 420 280" fill="none" xmlns="http://www.w3.org/2000/svg">
  <defs>
    <linearGradient id="teacher-bg" x1="36" y1="22" x2="388" y2="252" gradientUnits="userSpaceOnUse">
      <stop stop-color="#F7E9D5"/>
      <stop offset="0.52" stop-color="#EAF7F1"/>
      <stop offset="1" stop-color="#E8EEF8"/>
    </linearGradient>
    <linearGradient id="teacher-orb" x1="282" y1="20" x2="374" y2="118" gradientUnits="userSpaceOnUse">
      <stop stop-color="#26B39B" stop-opacity="0.5"/>
      <stop offset="1" stop-color="#0F172A" stop-opacity="0"/>
    </linearGradient>
    <linearGradient id="teacher-screen" x1="174" y1="56" x2="174" y2="132" gradientUnits="userSpaceOnUse">
      <stop stop-color="#FDFEFE"/>
      <stop offset="1" stop-color="#EAF3F8"/>
    </linearGradient>
  </defs>
  <rect width="420" height="280" rx="30" fill="url(#teacher-bg)"/>
  <circle cx="325" cy="74" r="76" fill="url(#teacher-orb)"/>
  <circle cx="82" cy="214" r="58" fill="#FFFFFF" fill-opacity="0.4"/>
  <rect x="66" y="198" width="286" height="18" rx="9" fill="#0F172A" fill-opacity="0.08"/>
  <g transform="translate(78 48)">
    <rect x="88" y="16" width="172" height="108" rx="18" fill="#183046"/>
    <rect x="100" y="28" width="148" height="84" rx="12" fill="url(#teacher-screen)"/>
    <path d="M114 92C128 79 141 76 152 67C168 54 184 52 198 46C210 41 220 36 234 36" stroke="#16937F" stroke-width="6" stroke-linecap="round"/>
    <circle cx="118" cy="92" r="7" fill="#16937F"/>
    <circle cx="155" cy="66" r="7" fill="#F08A5D"/>
    <circle cx="196" cy="48" r="7" fill="#3457D5"/>
    <circle cx="234" cy="36" r="7" fill="#102A43"/>
    <path d="M134 134H214L238 152H110L134 134Z" fill="#102A43"/>
    <rect x="144" y="140" width="60" height="6" rx="3" fill="#D7E2EB"/>
    <rect x="20" y="92" width="52" height="42" rx="10" fill="#F7B267"/>
    <rect x="20" y="84" width="52" height="14" rx="7" fill="#FDE4BE"/>
    <rect x="28" y="104" width="16" height="8" rx="4" fill="#FFFFFF" fill-opacity="0.7"/>
    <rect x="216" y="136" width="62" height="12" rx="6" fill="#163047" fill-opacity="0.14"/>
    <path d="M254 92C254 82.6112 261.611 75 271 75C280.389 75 288 82.6112 288 92V108C288 114.627 282.627 120 276 120H271C261.611 120 254 112.389 254 103V92Z" fill="#FFF8F0"/>
    <path d="M260 94H286" stroke="#163047" stroke-width="5" stroke-linecap="round" stroke-opacity="0.22"/>
    <path d="M271 76V68C271 64.6863 273.686 62 277 62H281" stroke="#163047" stroke-width="5" stroke-linecap="round" stroke-linejoin="round" stroke-opacity="0.22"/>
    <rect x="40" y="146" width="250" height="10" rx="5" fill="#163047" fill-opacity="0.12"/>
    <path d="M324 44L332 56L346 58L336 68L338 82L324 75L310 82L312 68L302 58L316 56L324 44Z" fill="#FFFFFF" fill-opacity="0.72"/>
    <circle cx="314" cy="24" r="13" fill="#0F172A" fill-opacity="0.09"/>
    <path d="M308 24H320" stroke="#0F172A" stroke-width="3" stroke-linecap="round" stroke-opacity="0.28"/>
    <path d="M314 18V30" stroke="#0F172A" stroke-width="3" stroke-linecap="round" stroke-opacity="0.28"/>
  </g>
</svg>
