<svg width="420" height="280" viewBox="0 0 420 280" fill="none" xmlns="http://www.w3.org/2000/svg">
  <defs>
    <linearGradient id="student-bg" x1="30" y1="18" x2="390" y2="258" gradientUnits="userSpaceOnUse">
      <stop stop-color="#FFF2D9"/>
      <stop offset="0.5" stop-color="#F4F7FF"/>
      <stop offset="1" stop-color="#FEE7D7"/>
    </linearGradient>
    <linearGradient id="student-orb" x1="36" y1="36" x2="128" y2="136" gradientUnits="userSpaceOnUse">
      <stop stop-color="#F59E0B" stop-opacity="0.42"/>
      <stop offset="1" stop-color="#F59E0B" stop-opacity="0"/>
    </linearGradient>
    <linearGradient id="student-book" x1="152" y1="54" x2="152" y2="200" gradientUnits="userSpaceOnUse">
      <stop stop-color="#FFFFFF"/>
      <stop offset="1" stop-color="#EEF3FF"/>
    </linearGradient>
  </defs>
  <rect width="420" height="280" rx="30" fill="url(#student-bg)"/>
  <circle cx="92" cy="88" r="72" fill="url(#student-orb)"/>
  <circle cx="334" cy="216" r="54" fill="#FFFFFF" fill-opacity="0.4"/>
  <g transform="translate(86 34)">
    <rect x="62" y="34" width="176" height="156" rx="24" fill="url(#student-book)"/>
    <path d="M150 34V190" stroke="#D2DEF4" stroke-width="4"/>
    <path d="M86 74H134" stroke="#CBD7EE" stroke-width="6" stroke-linecap="round"/>
    <path d="M86 96H134" stroke="#CBD7EE" stroke-width="6" stroke-linecap="round"/>
    <path d="M86 118H126" stroke="#CBD7EE" stroke-width="6" stroke-linecap="round"/>
    <path d="M166 74H214" stroke="#D8C8B7" stroke-width="6" stroke-linecap="round"/>
    <path d="M166 96H214" stroke="#D8C8B7" stroke-width="6" stroke-linecap="round"/>
    <path d="M166 118H206" stroke="#D8C8B7" stroke-width="6" stroke-linecap="round"/>
    <path d="M204 34H230V78L217 70L204 78V34Z" fill="#EF7F4D"/>
    <rect x="26" y="124" width="84" height="50" rx="14" transform="rotate(-11 26 124)" fill="#1D4ED8"/>
    <rect x="36" y="136" width="42" height="8" rx="4" transform="rotate(-11 36 136)" fill="#E5EEFF"/>
    <rect x="36" y="151" width="26" height="8" rx="4" transform="rotate(-11 36 151)" fill="#C8DAFF"/>
    <rect x="204" y="146" width="82" height="18" rx="9" transform="rotate(14 204 146)" fill="#F59E0B"/>
    <path d="M274 150L308 158L300 172L268 164L274 150Z" fill="#FAD38A"/>
    <path d="M306 158L318 162L303 176L300 172L306 158Z" fill="#1F2937"/>
    <path d="M86 196C86 170.595 106.595 150 132 150H168C193.405 150 214 170.595 214 196V202H198V196C198 179.431 184.569 166 168 166H132C115.431 166 102 179.431 102 196V202H86V196Z" fill="#163047" fill-opacity="0.14"/>
    <circle cx="120" cy="198" r="18" fill="#163047" fill-opacity="0.14"/>
    <circle cx="180" cy="198" r="18" fill="#163047" fill-opacity="0.14"/>
    <circle cx="290" cy="54" r="18" fill="#FFFFFF" fill-opacity="0.7"/>
    <path d="M282 54H298" stroke="#1D4ED8" stroke-width="4" stroke-linecap="round" stroke-opacity="0.35"/>
    <path d="M290 46V62" stroke="#1D4ED8" stroke-width="4" stroke-linecap="round" stroke-opacity="0.35"/>
  </g>
</svg>
